<svg xmlns="http://www.w3.org/2000/svg" style="display:none">

  <symbol id="icon-leaf" viewBox="0 0 24 24" fill="none">
    <path d="M20 4C11 4 4 11 4 20c9 0 16-7 16-16Z" stroke="currentColor" stroke-width="1.6" stroke-linejoin="round"/>
    <path d="M6 18c4-4 8-8 12-12" stroke="currentColor" stroke-width="1.6" stroke-linecap="round"/>
  </symbol>

  <symbol id="icon-menu" viewBox="0 0 24 24" fill="none">
    <path d="M3 6h18M3 12h18M3 18h18" stroke="currentColor" stroke-width="1.8" stroke-linecap="round"/>
  </symbol>

  <symbol id="icon-close" viewBox="0 0 24 24" fill="none">
    <path d="M5 5l14 14M19 5L5 19" stroke="currentColor" stroke-width="1.8" stroke-linecap="round"/>
  </symbol>

  <symbol id="icon-arrow-right" viewBox="0 0 24 24" fill="none">
    <path d="M4 12h16M13 5l7 7-7 7" stroke="currentColor" stroke-width="1.8" stroke-linecap="round" stroke-linejoin="round"/>
  </symbol>

  <symbol id="icon-phone" viewBox="0 0 24 24" fill="none">
    <path d="M6.5 3.5 9 6c.4.4.4 1 0 1.6L7.3 9.7c1 2.3 2.9 4.2 5.2 5.2l1.5-1.7c.5-.5 1.2-.5 1.6 0l2.4 2.5c.5.5.5 1.3 0 1.8l-1.3 1.3c-.6.6-1.5.8-2.3.5-3.3-1.1-6.9-4.6-8-8-.3-.8 0-1.7.5-2.3l1.3-1.3c-.1 0-.1 0 0 0Z" stroke="currentColor" stroke-width="1.6" stroke-linejoin="round"/>
  </symbol>

  <symbol id="icon-pin" viewBox="0 0 24 24" fill="none">
    <path d="M12 21s7-6.3 7-11.5a7 7 0 0 0-14 0C5 14.7 12 21 12 21Z" stroke="currentColor" stroke-width="1.6" stroke-linejoin="round"/>
    <circle cx="12" cy="9.5" r="2.4" stroke="currentColor" stroke-width="1.6"/>
  </symbol>

  <symbol id="icon-quote" viewBox="0 0 24 24" fill="none">
    <path d="M9.5 7.5c-2.5.6-4 2.6-4 5.2 0 2 1.3 3.3 3 3.3 1.5 0 2.6-1.1 2.6-2.6 0-1.3-.9-2.3-2.1-2.5.2-1.2 1.1-2.1 2.3-2.5l-1.8-1Zm8 0c-2.5.6-4 2.6-4 5.2 0 2 1.3 3.3 3 3.3 1.5 0 2.6-1.1 2.6-2.6 0-1.3-.9-2.3-2.1-2.5.2-1.2 1.1-2.1 2.3-2.5l-1.8-1Z" fill="currentColor"/>
  </symbol>

  <symbol id="icon-star" viewBox="0 0 24 24">
    <path d="M12 3.5l2.5 5.4 5.9.6-4.4 4 1.2 5.9L12 16.6l-5.2 2.8 1.2-5.9-4.4-4 5.9-.6L12 3.5Z" fill="currentColor"/>
  </symbol>

  <symbol id="icon-facebook" viewBox="0 0 24 24" fill="none">
    <path d="M14.5 8.5h2V5.7h-2c-2 0-3.3 1.4-3.3 3.5v1.8H9v2.8h2.2V21h2.9v-7.2h2.2l.4-2.8h-2.6V9.2c0-.5.3-.7.8-.7Z" stroke="currentColor" stroke-width="1.2" stroke-linejoin="round" fill="currentColor"/>
  </symbol>

  <symbol id="icon-instagram" viewBox="0 0 24 24" fill="none">
    <rect x="3.5" y="3.5" width="17" height="17" rx="5" stroke="currentColor" stroke-width="1.6"/>
    <circle cx="12" cy="12" r="4" stroke="currentColor" stroke-width="1.6"/>
    <circle cx="17.2" cy="6.8" r="1.1" fill="currentColor"/>
  </symbol>

  <symbol id="icon-twitter" viewBox="0 0 24 24" fill="none">
    <path d="M20.5 6.3c-.6.3-1.3.5-2 .6.7-.4 1.3-1.2 1.5-2-.7.4-1.5.7-2.3.9a3.6 3.6 0 0 0-6.2 3.3 10.3 10.3 0 0 1-7.5-3.8 3.6 3.6 0 0 0 1.1 4.8c-.6 0-1.1-.2-1.6-.4v.1c0 1.8 1.3 3.3 2.9 3.6-.5.2-1.1.2-1.6.1.5 1.5 1.9 2.5 3.5 2.6a7.2 7.2 0 0 1-5.3 1.5 10.2 10.2 0 0 0 5.6 1.6c6.7 0 10.4-5.6 10.4-10.4v-.5c.7-.5 1.3-1.2 1.5-1.9Z" fill="currentColor"/>
  </symbol>

</svg>
